<?xml version="1.0" standalone="no"?>
<!DOCTYPE svg PUBLIC "-//W3C//DTD SVG 20010904//EN"
 "http://www.w3.org/TR/2001/REC-SVG-20010904/DTD/svg10.dtd">
<svg version="1.0" xmlns="http://www.w3.org/2000/svg"
 width="1024.000000pt" height="1024.000000pt" viewBox="0 0 1024.000000 1024.000000"
 preserveAspectRatio="xMidYMid meet">
<metadata>
Created by potrace 1.11, written by Peter Selinger 2001-2013
</metadata>
<g transform="translate(0.000000,1024.000000) scale(0.100000,-0.100000)"
fill="#000000" stroke="none">
<path d="M3555 9421 c-33 -10 -71 -23 -85 -30 -103 -46 -199 -155 -241 -271
l-24 -65 0 -1045 c0 -575 2 -1057 5 -1072 3 -15 9 -30 13 -34 4 -4 7 -15 7
-25 0 -17 25 -71 45 -96 6 -7 23 -30 40 -51 146 -189 447 -225 645 -79 66 50
66 49 111 112 36 50 75 143 83 200 2 17 5 364 5 773 l1 742 2560 0 2560 0 0
-3360 0 -3360 -2560 0 -2560 0 -1 743 c0 408 -3 756 -5 772 -42 274 -320 456
-592 388 -87 -21 -179 -76 -231 -137 -14 -15 -29 -34 -35 -40 -31 -34 -62
-101 -82 -175 -11 -45 -14 -223 -14 -1071 0 -989 1 -1018 20 -1089 12 -40 35
-96 54 -124 31 -50 113 -137 128 -137 3 0 13 -6 20 -13 7 -8 45 -27 83 -43
l70 -29 3140 0 3140 0 67 24 c37 13 73 30 79 37 6 8 15 14 20 14 11 0 54 36
88 74 14 16 32 35 39 42 22 23 60 107 76 169 14 54 16 448 16 3955 0 3402 -2
3903 -15 3953 -25 95 -49 138 -124 222 -36 40 -103 87 -146 102 -30 11 -57 21
-85 32 -8 3 -1419 6 -3135 7 -2971 3 -3123 2 -3180 -15z"/>
<path d="M5635 7021 c-154 -44 -266 -147 -327 -300 -18 -45 -22 -76 -22 -161
1 -119 19 -181 80 -270 19 -28 177 -193 350 -366 174 -174 314 -317 312 -320
-3 -2 -1275 -5 -2829 -6 l-2824 -3 -60 -24 c-52 -20 -148 -82 -180 -116 -149
-156 -175 -413 -59 -590 79 -121 196 -199 329 -219 17 -2 1291 -5 2833 -5
l2802 -1 -322 -322 c-177 -178 -337 -344 -355 -370 -49 -74 -75 -153 -79 -243
-4 -99 7 -150 51 -240 54 -111 157 -201 275 -240 71 -24 207 -28 274 -8 132
39 126 33 911 819 407 407 756 759 776 781 139 158 142 427 7 597 -55 70
-1508 1514 -1552 1543 -112 74 -267 100 -391 64z"/>
</g>
</svg>
